<svg xmlns="http://www.w3.org/2000/svg" xmlns:xlink="http://www.w3.org/1999/xlink" viewBox="0 0 1723.96 412.97"><defs><style>.cls-1{font-size:250px;fill:#334155;font-family:Chillax-Regular, Chillax;}.cls-2{letter-spacing:-0.01em;}.cls-3{letter-spacing:0em;}.cls-4{letter-spacing:-0.01em;}.cls-5{letter-spacing:0.01em;}.cls-6{letter-spacing:0em;}.cls-7{fill:url(#linear-gradient);}.cls-8{fill:#0f7894;}.cls-9{fill:url(#linear-gradient-2);}.cls-10{fill:#61e8fb;}.cls-11{fill:url(#linear-gradient-3);}.cls-12{fill:#44e2f8;}</style><linearGradient id="linear-gradient" x1="223.68" y1="523.65" x2="223.68" y2="355.72" gradientUnits="userSpaceOnUse"><stop offset="0" stop-color="#49e3f9"/><stop offset="1" stop-color="#0f839f"/></linearGradient><linearGradient id="linear-gradient-2" x1="422.12" y1="631.54" x2="422.12" y2="343.48" xlink:href="#linear-gradient"/><linearGradient id="linear-gradient-3" x1="282.15" y1="747.33" x2="282.15" y2="520.79" gradientUnits="userSpaceOnUse"><stop offset="0" stop-color="#9cf1fc"/><stop offset="1" stop-color="#1dceea"/></linearGradient></defs><title>Graidnet logo + light grey</title><g id="Layer_1" data-name="Layer 1"><text class="cls-1" transform="translate(500.23 287.39)">Da<tspan class="cls-2" x="342.75" y="0">t</tspan><tspan class="cls-3" x="449.74" y="0">a</tspan><tspan class="cls-4" x="607.24" y="0">v</tspan><tspan x="735.49" y="0">e</tspan><tspan class="cls-5" x="877.49" y="0">r</tspan><tspan class="cls-6" x="962.48" y="0">se</tspan></text></g><g id="Layer_2" data-name="Layer 2"><path class="cls-7" d="M307.25,399.9c13.2,3.37,37.91,18.16,37.91,32.5S338,470.4,313,473.49c-28.36,3.51-43-.95-52.57-23.89s-4.77-37.91-27.39-46.51-44.92,3.82-55.43,15.61-22.94,27.71-30.58,58-17.52,52.24-34.09,45.87-11.78-37.59-.32-57S146.7,435,156.26,425.07s20.06-31.54,28.35-44.92,33.13-27.39,49.69-23.89,8.28,25.49,20.39,32.5S292.28,396.08,307.25,399.9Z" transform="translate(-102.2 -334.36)"/><path class="cls-8" d="M320.31,334.36c-26.28,0-38,10.75-34.16,23.18s27.77,17.52,48,14.81C357.34,369.24,368.25,334.36,320.31,334.36Z" transform="translate(-102.2 -334.36)"/><path class="cls-9" d="M456.49,398.63c-11.08-16.84-34.88-33.45-51.12-25.8s-8.13,19.11-4.3,25.32,20.54,24.37,32,32.5,33.45,23.41,33.93,50.17S464.14,531,442.64,541s-38.23-7.13-59.73-6.66-55.43,13.83-55.43,56.36c0,11.95,9.71,48.51,60.68,32.49,33.45-10.51,25.47-33.07,57.82-57.34,9.56-7.17,21,2.87,51.13,0s18.64-41.09,11-54.47-27.71-41.09-32-56.38S468.44,416.79,456.49,398.63Z" transform="translate(-102.2 -334.36)"/><path class="cls-10" d="M443.11,629c-8.56,13.12-16.24,39.18-2.38,46.82s36.31-2.39,44.43-25.32,0-34.88-9.55-38.71S450.28,618,443.11,629Z" transform="translate(-102.2 -334.36)"/><path class="cls-11" d="M356.63,747.13c16.46-1,31.91-9.87,34.08-28,2.55-21.35-29.62-23.26-46.51-21.66S310.12,714,285.91,713,227,691.38,219.65,672s-8.6-33.45.95-48.1,27.72-32.17,29-49.06-2.12-37-24.84-50.65c-22-13.22-43,15.93-45.24,30.9a95.2,95.2,0,0,0,4.46,44.6c4.78,13.38,15.29,29,7.65,45.55s-18.48,30.9-18.16,39.82,10.75,25.75,28.35,33.77c25.17,11.47,43.32.64,60.84,4.46C279.56,726.93,314.9,749.68,356.63,747.13Z" transform="translate(-102.2 -334.36)"/><path class="cls-12" d="M122.17,573.84c-14.41,2.95-17.52,25.16-12.74,43s21,33.45,33.45,30.58,17.2-22.3,11.78-41.09S134.59,571.29,122.17,573.84Z" transform="translate(-102.2 -334.36)"/></g></svg>