<svg id="Layer_1" data-name="Layer 1" xmlns="http://www.w3.org/2000/svg" viewBox="0 0 1724.81 414.27"><defs><style>.cls-1{font-size:250px;font-family:Chillax-Regular, Chillax;}.cls-1,.cls-7{fill:#fff;}.cls-2{letter-spacing:-0.01em;}.cls-3{letter-spacing:0em;}.cls-4{letter-spacing:-0.01em;}.cls-5{letter-spacing:0.01em;}.cls-6{letter-spacing:0em;}</style></defs><title>Logo + font white</title><text class="cls-1" transform="translate(501.08 288.53)">Da<tspan class="cls-2" x="342.75" y="0">t</tspan><tspan class="cls-3" x="449.74" y="0">a</tspan><tspan class="cls-4" x="607.24" y="0">v</tspan><tspan x="735.49" y="0">e</tspan><tspan class="cls-5" x="877.49" y="0">r</tspan><tspan class="cls-6" x="962.48" y="0">se</tspan></text><path class="cls-7" d="M307.05,399c13.24,3.38,38,18.21,38,32.59s-7.17,38.12-32.28,41.23c-28.44,3.51-43.14-1-52.72-24s-4.8-38-27.49-46.66S187.53,406,177,417.82s-23,27.8-30.68,58.16-17.58,52.41-34.19,46-11.83-37.71-.32-57.2,34.19-30.68,43.78-40.59,20.13-31.63,28.44-45.06,33.23-27.48,49.85-24,8.31,25.56,20.45,32.59S292,395.13,307.05,399Z" transform="translate(-101.35 -333.22)"/><path class="cls-7" d="M320.15,333.22c-26.36,0-38.1,10.78-34.27,23.25s27.86,17.58,48.17,14.85C357.3,368.21,368.24,333.22,320.15,333.22Z" transform="translate(-101.35 -333.22)"/><path class="cls-7" d="M456.77,397.69c-11.12-16.9-35-33.56-51.29-25.89s-8.15,19.18-4.32,25.41,20.62,24.45,32.12,32.6,33.55,23.48,34,50.33-2.87,50.33-24.44,60.39-38.35-7.15-59.92-6.69-55.61,13.88-55.61,56.55c0,12,9.74,48.66,60.88,32.59,33.56-10.54,25.55-33.18,58-57.52,9.59-7.19,21.09,2.88,51.29,0s18.7-41.22,11-54.65-27.81-41.22-32.12-56.56S468.75,415.9,456.77,397.69Z" transform="translate(-101.35 -333.22)"/><path class="cls-7" d="M443.35,628.73c-8.59,13.17-16.3,39.31-2.4,47s36.43-2.4,44.58-25.41,0-35-9.59-38.82S450.54,617.71,443.35,628.73Z" transform="translate(-101.35 -333.22)"/><path class="cls-7" d="M356.58,747.29c16.52-1,32-9.9,34.2-28.12,2.55-21.41-29.72-23.33-46.66-21.73s-34.19,16.62-58.48,15.66-59.12-21.73-66.47-41.22-8.63-33.56,1-48.26,27.8-32.28,29.08-49.21-2.13-37.1-24.93-50.81c-22.05-13.26-43.14,16-45.37,31a95.49,95.49,0,0,0,4.47,44.73c4.79,13.43,15.34,29.08,7.67,45.7s-18.53,31-18.22,40,10.79,25.82,28.45,33.87c25.24,11.51,43.46.64,61,4.47C279.28,727,314.72,749.85,356.58,747.29Z" transform="translate(-101.35 -333.22)"/><path class="cls-7" d="M121.38,573.45c-14.45,3-17.57,25.24-12.78,43.14s21.09,33.55,33.56,30.68S159.41,624.9,154,606,133.85,570.89,121.38,573.45Z" transform="translate(-101.35 -333.22)"/></svg>