<svg xmlns="http://www.w3.org/2000/svg" viewBox="0 0 413.35 411.76"><defs><style>.cls-1{fill:#fff;}</style></defs><title>only_logo_white</title><g id="Layer_2" data-name="Layer 2"><path class="cls-1" d="M306.42,400.23c13.16,3.36,37.8,18.11,37.8,32.4s-7.13,37.89-32.08,41c-28.27,3.5-42.88-1-52.41-23.82S255,412,232.41,403.41s-44.78,3.81-55.26,15.56-22.87,27.64-30.49,57.81-17.47,52.09-34,45.74-11.75-37.48-.32-56.86,34-30.49,43.52-40.33,20-31.45,28.27-44.79,33-27.31,49.55-23.82,8.25,25.41,20.32,32.4S291.49,396.42,306.42,400.23Z" transform="translate(-101.97 -334.88)"/><path class="cls-1" d="M319.44,334.88c-26.2,0-37.87,10.72-34.06,23.11s27.69,17.48,47.88,14.77C356.37,369.66,367.24,334.88,319.44,334.88Z" transform="translate(-101.97 -334.88)"/><path class="cls-1" d="M455.23,399c-11.05-16.79-34.78-33.35-51-25.72s-8.1,19.05-4.29,25.25,20.49,24.29,31.92,32.39,33.35,23.35,33.83,50-2.86,50-24.3,60-38.11-7.11-59.55-6.65-55.27,13.8-55.27,56.2c0,11.91,9.68,48.37,60.51,32.4,33.35-10.49,25.39-33,57.64-57.18,9.53-7.14,21,2.86,51,0s18.58-41,11-54.31-27.63-41-31.92-56.22S467.14,417.07,455.23,399Z" transform="translate(-101.97 -334.88)"/><path class="cls-1" d="M441.89,628.6c-8.54,13.09-16.2,39.07-2.39,46.69s36.21-2.38,44.31-25.25,0-34.78-9.53-38.59S449,617.65,441.89,628.6Z" transform="translate(-101.97 -334.88)"/><path class="cls-1" d="M355.65,746.44c16.42-1,31.82-9.84,34-28,2.54-21.28-29.54-23.19-46.38-21.6s-34,16.52-58.12,15.57-58.76-21.6-66.07-41-8.57-33.35,1-48,27.63-32.08,28.9-48.91-2.12-36.88-24.77-50.5c-21.92-13.19-42.88,15.88-45.11,30.81a95,95,0,0,0,4.45,44.46c4.77,13.34,15.25,28.91,7.62,45.42S172.7,675.61,173,684.5s10.72,25.67,28.27,33.67c25.09,11.44,43.19.64,60.66,4.45C278.81,726.3,314,749,355.65,746.44Z" transform="translate(-101.97 -334.88)"/><path class="cls-1" d="M121.88,573.65c-14.36,3-17.47,25.1-12.7,42.88s21,33.35,33.35,30.5,17.15-22.24,11.75-41S134.27,571.11,121.88,573.65Z" transform="translate(-101.97 -334.88)"/></g></svg>