<svg xmlns="http://www.w3.org/2000/svg" xmlns:xlink="http://www.w3.org/1999/xlink" viewBox="0 0 670.88 668.29"><defs><style>.cls-1{fill:url(#linear-gradient);}.cls-2{fill:#0f7894;}.cls-3{fill:url(#linear-gradient-2);}.cls-4{fill:#61e8fb;}.cls-5{fill:url(#linear-gradient-3);}.cls-6{fill:#44e2f8;}</style><linearGradient id="linear-gradient" x1="7045.08" y1="7159.5" x2="7045.08" y2="6887.73" gradientUnits="userSpaceOnUse"><stop offset="0" stop-color="#49e3f9"/><stop offset="1" stop-color="#0f839f"/></linearGradient><linearGradient id="linear-gradient-2" x1="7366.21" y1="7334.08" x2="7366.21" y2="6867.92" xlink:href="#linear-gradient"/><linearGradient id="linear-gradient-3" x1="7139.71" y1="7521.46" x2="7139.71" y2="7154.86" gradientUnits="userSpaceOnUse"><stop offset="0" stop-color="#9cf1fc"/><stop offset="1" stop-color="#1dceea"/></linearGradient></defs><title>Only_logo_color</title><g id="Layer_2" data-name="Layer 2"><path class="cls-1" d="M7180.33,6959.24c21.35,5.45,61.34,29.38,61.34,52.58s-11.57,61.5-52.07,66.5c-45.88,5.67-69.59-1.54-85.05-38.66s-7.74-61.35-44.34-75.27-72.68,6.19-89.7,25.26-37.11,44.85-49.49,93.83-28.35,84.54-55.15,74.23-19.08-60.83-.52-92.28S6920.51,7016,6936,7000s32.48-51,45.88-72.68,53.62-44.34,80.42-38.66,13.41,41.24,33,52.58S7156.1,6953.05,7180.33,6959.24Z" transform="translate(-6848.49 -6853.17)"/><path class="cls-2" d="M7201.46,6853.17c-42.53,0-61.47,17.4-55.29,37.51s44.95,28.36,77.72,24C7261.39,6909.62,7279,6853.17,7201.46,6853.17Z" transform="translate(-6848.49 -6853.17)"/><path class="cls-3" d="M7421.84,6957.18c-17.93-27.26-56.45-54.13-82.74-41.76s-13.14,30.93-7,41,33.25,39.44,51.81,52.59,54.13,37.89,54.9,81.19-4.64,81.19-39.43,97.43-61.86-11.55-96.66-10.79-89.7,22.39-89.7,91.21c0,19.33,15.71,78.51,98.2,52.58,54.13-17,41.22-53.53,93.57-92.79,15.46-11.6,34,4.64,82.74,0s30.16-66.5,17.78-88.15-44.85-66.5-51.81-91.25S7441.17,6986.56,7421.84,6957.18Z" transform="translate(-6848.49 -6853.17)"/><path class="cls-4" d="M7400.19,7329.89c-13.86,21.25-26.29,63.41-3.87,75.78s58.77-3.87,71.92-41,0-56.45-15.47-62.64S7411.79,7312.11,7400.19,7329.89Z" transform="translate(-6848.49 -6853.17)"/><path class="cls-5" d="M7260.23,7521.14c26.65-1.62,51.65-16,55.16-45.36,4.12-34.54-47.94-37.63-75.27-35.06s-55.16,26.81-94.33,25.26-95.37-35-107.23-66.5-13.92-54.12,1.55-77.84,44.85-52.06,46.91-79.39-3.44-59.85-40.21-82c-35.57-21.4-69.59,25.77-73.2,50a154.08,154.08,0,0,0,7.21,72.17c7.74,21.65,24.75,46.91,12.38,73.72s-29.9,50-29.39,64.44,17.39,41.66,45.88,54.64c40.73,18.56,70.11,1,98.46,7.22C7135.52,7488.45,7192.7,7525.27,7260.23,7521.14Z" transform="translate(-6848.49 -6853.17)"/><path class="cls-6" d="M6880.82,7240.71c-23.32,4.78-28.36,40.72-20.63,69.59s34,54.13,54.13,49.49,27.84-36.09,19.08-66.5S6900.92,7236.58,6880.82,7240.71Z" transform="translate(-6848.49 -6853.17)"/></g></svg>